<svg id="Layer_1" data-name="Layer 1" xmlns="http://www.w3.org/2000/svg" viewBox="0 0 512 512"><defs><style>.cls-1{fill:#333;}.cls-2{fill:#f8f8f8;}</style></defs><title>burgerButtonArtboard 1</title><path class="cls-1" d="M170.5,418.38l155.93-61.81a1.5,1.5,0,0,0-.55-2.89H1.31V305.85H328.2a1.5,1.5,0,0,0,.55-2.9l-158.25-62V180.3L508.59,330,455.9,353,170.5,479.69Z"/><path class="cls-2" d="M172,182.61,504.87,330l-49.58,21.68L172,477.39v-58L327,358a3,3,0,0,0-1.11-5.79H2.82V307.35H328.2a3,3,0,0,0,1.09-5.79L172,239.92V182.61M169,178v64l159.2,62.38H-.18v50.84H325.88L169,417.36V482L456.5,354.41,512.32,330,169,178Z"/></svg>